<mxfile host="Electron" agent="Mozilla/5.0 (Macintosh; Intel Mac OS X 10_15_7) AppleWebKit/537.36 (KHTML, like Gecko) draw.io/26.0.9 Chrome/128.0.6613.186 Electron/32.2.5 Safari/537.36" version="26.0.9">
  <diagram name="Page-1" id="gZH8kSlKNtmEvOvQ1IiT">
    <mxGraphModel dx="1100" dy="420" grid="1" gridSize="10" guides="1" tooltips="1" connect="1" arrows="1" fold="1" page="1" pageScale="1" pageWidth="1100" pageHeight="850" math="0" shadow="0">
      <root>
        <mxCell id="0" />
        <mxCell id="1" parent="0" />
        <mxCell id="1R-UEZMBGipmWwcEH6OW-1" value="drawing (draw.io)" style="ellipse;whiteSpace=wrap;html=1;" vertex="1" parent="1">
          <mxGeometry x="200" y="80" width="120" height="80" as="geometry" />
        </mxCell>
        <mxCell id="1R-UEZMBGipmWwcEH6OW-2" value="browser&lt;div&gt;(output GUI)&lt;/div&gt;" style="ellipse;whiteSpace=wrap;html=1;" vertex="1" parent="1">
          <mxGeometry x="520" y="80" width="120" height="80" as="geometry" />
        </mxCell>
        <mxCell id="1R-UEZMBGipmWwcEH6OW-7" style="edgeStyle=orthogonalEdgeStyle;rounded=0;orthogonalLoop=1;jettySize=auto;html=1;exitX=0;exitY=1;exitDx=0;exitDy=0;entryX=0;entryY=0;entryDx=0;entryDy=0;" edge="1" parent="1" source="1R-UEZMBGipmWwcEH6OW-3" target="1R-UEZMBGipmWwcEH6OW-4">
          <mxGeometry relative="1" as="geometry" />
        </mxCell>
        <mxCell id="1R-UEZMBGipmWwcEH6OW-8" value="exec" style="edgeLabel;html=1;align=center;verticalAlign=middle;resizable=0;points=[];" vertex="1" connectable="0" parent="1R-UEZMBGipmWwcEH6OW-7">
          <mxGeometry x="-0.0387" y="3" relative="1" as="geometry">
            <mxPoint as="offset" />
          </mxGeometry>
        </mxCell>
        <mxCell id="1R-UEZMBGipmWwcEH6OW-3" value="glue" style="ellipse;whiteSpace=wrap;html=1;" vertex="1" parent="1">
          <mxGeometry x="370" y="200" width="120" height="80" as="geometry" />
        </mxCell>
        <mxCell id="1R-UEZMBGipmWwcEH6OW-4" value="compiler&lt;div&gt;(drawing-&amp;gt;JSON, exec)&lt;/div&gt;" style="ellipse;whiteSpace=wrap;html=1;" vertex="1" parent="1">
          <mxGeometry x="370" y="360" width="120" height="80" as="geometry" />
        </mxCell>
        <mxCell id="1R-UEZMBGipmWwcEH6OW-5" style="edgeStyle=orthogonalEdgeStyle;rounded=0;orthogonalLoop=1;jettySize=auto;html=1;exitX=0.5;exitY=0;exitDx=0;exitDy=0;entryX=0;entryY=0.5;entryDx=0;entryDy=0;curved=1;dashed=1;" edge="1" parent="1" source="1R-UEZMBGipmWwcEH6OW-3" target="1R-UEZMBGipmWwcEH6OW-3">
          <mxGeometry relative="1" as="geometry">
            <Array as="points">
              <mxPoint x="430" y="120" />
              <mxPoint x="280" y="120" />
              <mxPoint x="280" y="240" />
            </Array>
          </mxGeometry>
        </mxCell>
        <mxCell id="1R-UEZMBGipmWwcEH6OW-6" value="periodic watch" style="edgeLabel;html=1;align=center;verticalAlign=middle;resizable=0;points=[];" vertex="1" connectable="0" parent="1R-UEZMBGipmWwcEH6OW-5">
          <mxGeometry x="-0.8227" y="6" relative="1" as="geometry">
            <mxPoint as="offset" />
          </mxGeometry>
        </mxCell>
        <mxCell id="1R-UEZMBGipmWwcEH6OW-9" value="" style="shape=flexArrow;endArrow=classic;html=1;rounded=0;entryX=0;entryY=1;entryDx=0;entryDy=0;" edge="1" parent="1" source="1R-UEZMBGipmWwcEH6OW-3" target="1R-UEZMBGipmWwcEH6OW-2">
          <mxGeometry width="50" height="50" relative="1" as="geometry">
            <mxPoint x="520" y="250" as="sourcePoint" />
            <mxPoint x="570" y="200" as="targetPoint" />
          </mxGeometry>
        </mxCell>
        <mxCell id="1R-UEZMBGipmWwcEH6OW-10" value="websocket" style="edgeLabel;html=1;align=center;verticalAlign=middle;resizable=0;points=[];" vertex="1" connectable="0" parent="1R-UEZMBGipmWwcEH6OW-9">
          <mxGeometry x="-0.2424" relative="1" as="geometry">
            <mxPoint as="offset" />
          </mxGeometry>
        </mxCell>
        <mxCell id="1R-UEZMBGipmWwcEH6OW-11" value="" style="shape=flexArrow;endArrow=classic;html=1;rounded=0;exitX=1;exitY=0;exitDx=0;exitDy=0;entryX=1;entryY=1;entryDx=0;entryDy=0;" edge="1" parent="1" source="1R-UEZMBGipmWwcEH6OW-4" target="1R-UEZMBGipmWwcEH6OW-3">
          <mxGeometry width="50" height="50" relative="1" as="geometry">
            <mxPoint x="477" y="219" as="sourcePoint" />
            <mxPoint x="548" y="158" as="targetPoint" />
          </mxGeometry>
        </mxCell>
        <mxCell id="1R-UEZMBGipmWwcEH6OW-12" value="websocket" style="edgeLabel;html=1;align=center;verticalAlign=middle;resizable=0;points=[];" vertex="1" connectable="0" parent="1R-UEZMBGipmWwcEH6OW-11">
          <mxGeometry x="-0.2424" relative="1" as="geometry">
            <mxPoint as="offset" />
          </mxGeometry>
        </mxCell>
        <mxCell id="1R-UEZMBGipmWwcEH6OW-13" style="edgeStyle=orthogonalEdgeStyle;rounded=0;orthogonalLoop=1;jettySize=auto;html=1;exitX=1;exitY=1;exitDx=0;exitDy=0;entryX=1;entryY=0;entryDx=0;entryDy=0;dashed=1;dashPattern=1 4;" edge="1" parent="1" source="1R-UEZMBGipmWwcEH6OW-3" target="1R-UEZMBGipmWwcEH6OW-3">
          <mxGeometry relative="1" as="geometry">
            <Array as="points">
              <mxPoint x="472" y="250" />
              <mxPoint x="472" y="250" />
            </Array>
          </mxGeometry>
        </mxCell>
      </root>
    </mxGraphModel>
  </diagram>
</mxfile>
